<svg width="944" height="250" viewBox="0 0 944 250" fill="none" xmlns="http://www.w3.org/2000/svg">
<path d="M46 72.8L75.6 68.8L61.4 135.6C67.8 135.067 73.6667 132.267 79 127.2C84.4667 122.133 88.7333 115.867 91.8 108.4C94.8667 100.933 96.4 93.6 96.4 86.4C96.4 78.4 94.3333 71.8667 90.2 66.8C86.0667 61.7333 79.8667 59.2 71.6 59.2C55.3333 59.2 42.6 63.4667 33.4 72C24.3333 80.5333 19.8 92.4667 19.8 107.8C19.8 112.733 20.2667 116.2 21.2 118.2C22.1333 120.067 22.6 121.133 22.6 121.4C15.4 121.4 10 119.933 6.4 117C2.93333 113.933 1.2 108.933 1.2 102C1.2 93.4667 4.66667 85.2 11.6 77.2C18.6667 69.0667 27.6667 62.5333 38.6 57.6C49.5333 52.5333 60.4667 50 71.4 50C81.9333 50 90.7333 51.8 97.8 55.4C104.867 59 110.067 63.8 113.4 69.8C116.867 75.6667 118.6 82.2 118.6 89.4C118.6 98.0667 116.2 106.533 111.4 114.8C106.733 123.067 100 129.867 91.2 135.2C82.4 140.4 72.2667 143 60.8 143H59.8L47.6 200H18.8L46 72.8ZM143.248 201.2C133.382 201.2 125.715 198.667 120.248 193.6C114.782 188.4 112.048 180.333 112.048 169.4C112.048 160.2 113.848 150.067 117.448 139C121.048 127.933 126.915 118.4 135.048 110.4C143.182 102.267 153.515 98.2 166.048 98.2C180.715 98.2 188.048 104.6 188.048 117.4C188.048 124.867 185.915 131.733 181.648 138C177.382 144.267 171.715 149.333 164.648 153.2C157.582 156.933 150.048 159.067 142.048 159.6C141.782 163.6 141.648 166.267 141.648 167.6C141.648 174.133 142.782 178.6 145.048 181C147.315 183.267 150.982 184.4 156.048 184.4C163.248 184.4 169.382 182.733 174.448 179.4C179.648 176.067 185.315 171 191.448 164.2H198.248C183.448 188.867 165.115 201.2 143.248 201.2ZM143.648 150C148.582 149.733 153.248 148 157.648 144.8C162.182 141.6 165.782 137.533 168.448 132.6C171.248 127.667 172.648 122.467 172.648 117C172.648 111.533 170.982 108.8 167.648 108.8C162.848 108.8 158.115 113 153.448 121.4C148.915 129.8 145.648 139.333 143.648 150ZM215.406 201.2C207.806 201.2 201.473 198.6 196.406 193.4C191.34 188.2 188.806 180.067 188.806 169C188.806 159.133 190.74 148.8 194.606 138C198.606 127.067 204.473 117.867 212.206 110.4C220.073 102.8 229.406 99 240.206 99C245.673 99 249.74 99.9333 252.406 101.8C255.073 103.667 256.406 106.133 256.406 109.2V110L266.206 64L295.806 60L272.806 168C272.273 170 272.006 172.133 272.006 174.4C272.006 177.067 272.606 179 273.806 180.2C275.14 181.267 277.273 181.8 280.206 181.8C283.94 181.8 287.14 180.2 289.806 177C292.606 173.8 294.806 169.533 296.406 164.2H304.806C296.673 188.067 283.273 200 264.606 200C259.14 200 254.673 198.533 251.206 195.6C247.873 192.667 245.806 188.4 245.006 182.8C241.54 188.133 237.34 192.533 232.406 196C227.606 199.467 221.94 201.2 215.406 201.2ZM228.406 181.8C231.606 181.8 234.806 180.333 238.006 177.4C241.34 174.467 243.606 170.4 244.806 165.2V164.2L254.606 118.4C253.406 113.733 250.673 111.4 246.406 111.4C241.073 111.4 236.273 114.533 232.006 120.8C227.74 126.933 224.406 134.4 222.006 143.2C219.606 151.867 218.406 159.533 218.406 166.2C218.406 172.867 219.34 177.133 221.206 179C223.206 180.867 225.606 181.8 228.406 181.8ZM329.884 89.2C325.484 89.2 321.751 87.6667 318.684 84.6C315.618 81.5333 314.084 77.8 314.084 73.4C314.084 69 315.618 65.2667 318.684 62.2C321.751 59 325.484 57.4 329.884 57.4C334.284 57.4 338.018 59 341.084 62.2C344.284 65.2667 345.884 69 345.884 73.4C345.884 77.8 344.284 81.5333 341.084 84.6C338.018 87.6667 334.284 89.2 329.884 89.2ZM316.284 201.2C309.884 201.2 304.684 199.2 300.684 195.2C296.818 191.2 294.884 185.2 294.884 177.2C294.884 173.867 295.418 169.533 296.484 164.2L310.084 100H338.884L324.484 168C323.951 170 323.684 172.133 323.684 174.4C323.684 177.067 324.284 179 325.484 180.2C326.818 181.267 328.951 181.8 331.884 181.8C335.751 181.8 339.351 180.2 342.684 177C346.018 173.667 348.418 169.4 349.884 164.2H358.284C353.351 178.6 347.018 188.4 339.284 193.6C331.551 198.667 323.884 201.2 316.284 201.2ZM373.805 201.2C366.205 201.2 359.871 198.6 354.805 193.4C349.738 188.2 347.205 180.067 347.205 169C347.205 159.133 349.138 148.8 353.005 138C357.005 127.067 362.871 117.867 370.605 110.4C378.471 102.8 387.805 99 398.605 99C404.071 99 408.138 99.9333 410.805 101.8C413.471 103.667 414.805 106.133 414.805 109.2V110L424.605 64L454.205 60L431.205 168C430.671 170 430.405 172.133 430.405 174.4C430.405 177.067 431.005 179 432.205 180.2C433.538 181.267 435.671 181.8 438.605 181.8C442.338 181.8 445.538 180.2 448.205 177C451.005 173.8 453.205 169.533 454.805 164.2H463.205C455.071 188.067 441.671 200 423.005 200C417.538 200 413.071 198.533 409.605 195.6C406.271 192.667 404.205 188.4 403.405 182.8C399.938 188.133 395.738 192.533 390.805 196C386.005 199.467 380.338 201.2 373.805 201.2ZM386.805 181.8C390.005 181.8 393.205 180.333 396.405 177.4C399.738 174.467 402.005 170.4 403.205 165.2V164.2L413.005 118.4C411.805 113.733 409.071 111.4 404.805 111.4C399.471 111.4 394.671 114.533 390.405 120.8C386.138 126.933 382.805 134.4 380.405 143.2C378.005 151.867 376.805 159.533 376.805 166.2C376.805 172.867 377.738 177.133 379.605 179C381.605 180.867 384.005 181.8 386.805 181.8ZM484.083 200.8C474.216 200.8 466.416 198.267 460.683 193.2C454.949 188.133 452.083 180.133 452.083 169.2C452.083 160 453.883 149.933 457.483 139C461.083 127.933 466.949 118.4 475.083 110.4C483.216 102.267 493.616 98.2 506.283 98.2C522.016 98.2 530.483 107.2 531.683 125.2C534.616 124.533 537.216 122.933 539.483 120.4C541.749 117.733 543.883 114.733 545.883 111.4H552.283C548.683 118.6 545.483 124.267 542.683 128.4C539.883 132.4 536.216 135.667 531.683 138.2C530.883 150.733 528.283 161.733 523.883 171.2C519.616 180.667 514.016 188 507.083 193.2C500.149 198.267 492.483 200.8 484.083 200.8ZM492.083 182.8C497.016 182.8 501.616 178.8 505.883 170.8C510.149 162.8 513.083 152.933 514.683 141.2C511.483 140 509.883 137 509.883 132.2C509.883 127 511.749 123.533 515.483 121.8C515.216 117.533 514.483 114.6 513.283 113C512.216 111.267 510.416 110.4 507.883 110.4C503.483 110.4 499.283 113.6 495.283 120C491.283 126.267 488.016 133.933 485.483 143C483.083 151.933 481.883 159.8 481.883 166.6C481.883 173 482.616 177.333 484.083 179.6C485.549 181.733 488.216 182.8 492.083 182.8Z" fill="white"/>
<path d="M46 72.8L45.8661 71.809L45.1692 71.9032L45.0221 72.5909L46 72.8ZM75.6 68.8L76.5781 69.0079L76.8734 67.6188L75.4661 67.809L75.6 68.8ZM61.4 135.6L60.4219 135.392L60.1421 136.708L61.483 136.597L61.4 135.6ZM79 127.2L78.3202 126.467L78.3113 126.475L79 127.2ZM91.8 108.4L90.875 108.02L90.875 108.02L91.8 108.4ZM90.2 66.8L89.4251 67.4321L89.4251 67.4321L90.2 66.8ZM33.4 72L32.7199 71.2668L32.7146 71.2718L33.4 72ZM21.2 118.2L20.2938 118.623L20.2995 118.635L20.3056 118.647L21.2 118.2ZM22.6 121.4V122.4H23.6V121.4H22.6ZM6.4 117L5.73743 117.749L5.75261 117.762L5.76833 117.775L6.4 117ZM11.6 77.2L10.8451 76.5441L10.8443 76.5451L11.6 77.2ZM38.6 57.6L39.0113 58.5115L39.0205 58.5073L38.6 57.6ZM97.8 55.4L97.3461 56.291L97.3461 56.291L97.8 55.4ZM113.4 69.8L112.526 70.2856L112.532 70.2973L112.539 70.3087L113.4 69.8ZM111.4 114.8L110.535 114.298L110.529 114.308L111.4 114.8ZM91.2 135.2L91.7088 136.061L91.7183 136.055L91.2 135.2ZM59.8 143V142H58.9914L58.8222 142.791L59.8 143ZM47.6 200V201H48.4086L48.5779 200.209L47.6 200ZM18.8 200L17.8221 199.791L17.5636 201H18.8V200ZM46.1339 73.791L75.7339 69.791L75.4661 67.809L45.8661 71.809L46.1339 73.791ZM74.6219 68.5921L60.4219 135.392L62.3781 135.808L76.5781 69.0079L74.6219 68.5921ZM61.483 136.597C68.1424 136.042 74.2156 133.125 79.6888 127.925L78.3113 126.475C73.1177 131.409 67.4576 134.092 61.317 134.603L61.483 136.597ZM79.6798 127.933C85.2615 122.76 89.6079 116.37 92.725 108.78L90.875 108.02C87.8588 115.364 83.6719 121.507 78.3202 126.467L79.6798 127.933ZM92.725 108.78C95.8352 101.207 97.4 93.7452 97.4 86.4H95.4C95.4 93.4548 93.8981 100.659 90.875 108.02L92.725 108.78ZM97.4 86.4C97.4 78.2228 95.2842 71.4503 90.9749 66.1679L89.4251 67.4321C93.3825 72.283 95.4 78.5772 95.4 86.4H97.4ZM90.9749 66.1679C86.603 60.8088 80.0807 58.2 71.6 58.2V60.2C79.6526 60.2 85.5303 62.6578 89.4251 67.4321L90.9749 66.1679ZM71.6 58.2C55.1582 58.2 42.1546 62.5159 32.72 71.2668L34.08 72.7332C43.0454 64.4174 55.5085 60.2 71.6 60.2V58.2ZM32.7146 71.2718C23.4023 80.0364 18.8 92.2593 18.8 107.8H20.8C20.8 92.674 25.2644 81.0303 34.0854 72.7282L32.7146 71.2718ZM18.8 107.8C18.8 112.742 19.2592 116.406 20.2938 118.623L22.1062 117.777C21.2741 115.994 20.8 112.724 20.8 107.8H18.8ZM20.3056 118.647C20.7696 119.575 21.1107 120.291 21.3338 120.801C21.446 121.057 21.5222 121.248 21.5686 121.38C21.6317 121.561 21.6 121.526 21.6 121.4H23.6C23.6 121.141 23.5099 120.873 23.4564 120.72C23.3861 120.519 23.2874 120.276 23.1662 119.999C22.9226 119.443 22.5638 118.691 22.0944 117.753L20.3056 118.647ZM22.6 120.4C15.5101 120.4 10.3783 118.952 7.03167 116.225L5.76833 117.775C9.6217 120.915 15.2899 122.4 22.6 122.4V120.4ZM7.06257 116.251C3.89871 113.452 2.2 108.791 2.2 102H0.2C0.2 109.076 1.96796 114.414 5.73743 117.749L7.06257 116.251ZM2.2 102C2.2 93.7612 5.54062 85.7185 12.3557 77.8549L10.8443 76.5451C3.79271 84.6815 0.2 93.1722 0.2 102H2.2ZM12.3549 77.8559C19.3166 69.8433 28.1946 63.3922 39.0113 58.5115L38.1887 56.6885C27.1387 61.6745 18.0168 68.29 10.8451 76.5441L12.3549 77.8559ZM39.0205 58.5073C49.8356 53.4954 60.6262 51 71.4 51V49C60.3072 49 49.231 51.5713 38.1795 56.6927L39.0205 58.5073ZM71.4 51C81.8252 51 90.4584 52.7822 97.3461 56.291L98.2539 54.509C91.0083 50.8178 82.0415 49 71.4 49V51ZM97.3461 56.291C104.264 59.8151 109.304 64.4854 112.526 70.2856L114.274 69.3144C110.83 63.1146 105.47 58.1848 98.2539 54.509L97.3461 56.291ZM112.539 70.3087C115.909 76.0125 117.6 82.3684 117.6 89.4H119.6C119.6 82.0316 117.824 75.3208 114.261 69.2913L112.539 70.3087ZM117.6 89.4C117.6 97.8725 115.256 106.168 110.535 114.298L112.265 115.302C117.144 106.899 119.6 98.2608 119.6 89.4H117.6ZM110.529 114.308C105.954 122.413 99.3476 129.093 90.6817 134.345L91.7183 136.055C100.652 130.641 107.513 123.72 112.271 115.292L110.529 114.308ZM90.6913 134.339C82.0635 139.437 72.11 142 60.8 142V144C72.4233 144 82.7365 141.363 91.7087 136.061L90.6913 134.339ZM60.8 142H59.8V144H60.8V142ZM58.8222 142.791L46.6221 199.791L48.5779 200.209L60.7779 143.209L58.8222 142.791ZM47.6 199H18.8V201H47.6V199ZM19.7779 200.209L46.9779 73.0091L45.0221 72.5909L17.8221 199.791L19.7779 200.209ZM120.248 193.6L119.559 194.325L119.569 194.333L120.248 193.6ZM117.448 139L118.399 139.309L118.399 139.309L117.448 139ZM135.048 110.4L135.75 111.113L135.756 111.107L135.048 110.4ZM181.648 138L182.475 138.563L182.475 138.563L181.648 138ZM164.648 153.2L165.116 154.084L165.122 154.081L165.128 154.077L164.648 153.2ZM142.048 159.6L141.982 158.602L141.109 158.66L141.051 159.533L142.048 159.6ZM145.048 181L144.321 181.687L144.331 181.697L144.341 181.707L145.048 181ZM174.448 179.4L173.909 178.558L173.899 178.565L174.448 179.4ZM191.448 164.2V163.2H191.004L190.706 163.53L191.448 164.2ZM198.248 164.2L199.106 164.714L200.015 163.2H198.248V164.2ZM143.648 150L142.666 149.816L142.431 151.067L143.702 150.999L143.648 150ZM157.648 144.8L157.072 143.983L157.06 143.991L157.648 144.8ZM168.448 132.6L167.579 132.106L167.574 132.115L167.569 132.124L168.448 132.6ZM153.448 121.4L152.574 120.914L152.568 120.925L153.448 121.4ZM143.248 200.2C133.55 200.2 126.157 197.712 120.928 192.867L119.569 194.333C125.274 199.621 133.213 202.2 143.248 202.2V200.2ZM120.938 192.875C115.744 187.935 113.048 180.184 113.048 169.4H111.048C111.048 180.483 113.819 188.865 119.559 194.325L120.938 192.875ZM113.048 169.4C113.048 160.329 114.824 150.301 118.399 139.309L116.497 138.691C112.873 149.832 111.048 160.071 111.048 169.4H113.048ZM118.399 139.309C121.951 128.392 127.733 118.998 135.75 111.113L134.347 109.687C126.097 117.802 120.146 127.475 116.497 138.691L118.399 139.309ZM135.756 111.107C143.684 103.179 153.754 99.2 166.048 99.2V97.2C153.276 97.2 142.68 101.354 134.341 109.693L135.756 111.107ZM166.048 99.2C173.259 99.2 178.479 100.776 181.891 103.753C185.276 106.708 187.048 111.192 187.048 117.4H189.048C189.048 110.808 187.154 105.692 183.206 102.247C179.284 98.824 173.505 97.2 166.048 97.2V99.2ZM187.048 117.4C187.048 124.663 184.977 131.334 180.822 137.437L182.475 138.563C186.853 132.133 189.048 125.071 189.048 117.4H187.048ZM180.822 137.437C176.65 143.565 171.105 148.527 164.168 152.323L165.128 154.077C172.325 150.14 178.114 144.968 182.475 138.563L180.822 137.437ZM164.181 152.316C157.239 155.983 149.842 158.078 141.982 158.602L142.115 160.598C150.255 160.055 157.924 157.883 165.116 154.084L164.181 152.316ZM141.051 159.533C140.784 163.528 140.648 166.228 140.648 167.6H142.648C142.648 166.306 142.779 163.672 143.046 159.667L141.051 159.533ZM140.648 167.6C140.648 174.172 141.773 178.988 144.321 181.687L145.775 180.313C143.791 178.212 142.648 174.094 142.648 167.6H140.648ZM144.341 181.707C146.88 184.245 150.866 185.4 156.048 185.4V183.4C151.098 183.4 147.751 182.288 145.756 180.293L144.341 181.707ZM156.048 185.4C163.407 185.4 169.74 183.695 174.998 180.235L173.899 178.565C169.024 181.772 163.09 183.4 156.048 183.4V185.4ZM174.988 180.242C180.29 176.843 186.024 171.707 192.191 164.87L190.706 163.53C184.606 170.293 179.007 175.29 173.909 178.558L174.988 180.242ZM191.448 165.2H198.248V163.2H191.448V165.2ZM197.391 163.686C182.707 188.159 164.654 200.2 143.248 200.2V202.2C165.576 202.2 184.19 189.574 199.106 164.714L197.391 163.686ZM143.702 150.999C148.848 150.72 153.697 148.91 158.237 145.609L157.06 143.991C152.8 147.09 148.316 148.746 143.594 149.001L143.702 150.999ZM158.225 145.617C162.886 142.327 166.589 138.143 169.328 133.076L167.569 132.124C164.975 136.924 161.478 140.873 157.072 143.983L158.225 145.617ZM169.318 133.094C172.2 128.016 173.648 122.646 173.648 117H171.648C171.648 122.287 170.297 127.318 167.579 132.106L169.318 133.094ZM173.648 117C173.648 114.198 173.227 111.928 172.252 110.329C171.228 108.65 169.646 107.8 167.648 107.8V109.8C168.984 109.8 169.902 110.316 170.545 111.371C171.236 112.505 171.648 114.336 171.648 117H173.648ZM167.648 107.8C164.935 107.8 162.325 108.992 159.835 111.202C157.352 113.405 154.937 116.661 152.574 120.914L154.323 121.886C156.627 117.739 158.912 114.695 161.162 112.698C163.405 110.708 165.562 109.8 167.648 109.8V107.8ZM152.568 120.925C147.98 129.428 144.682 139.061 142.666 149.816L144.631 150.184C146.615 139.606 149.85 130.172 154.328 121.875L152.568 120.925ZM196.406 193.4L195.69 194.098L195.69 194.098L196.406 193.4ZM194.606 138L193.667 137.656L193.665 137.663L194.606 138ZM212.206 110.4L212.901 111.119L212.901 111.119L212.206 110.4ZM252.406 101.8L252.98 100.981L252.98 100.981L252.406 101.8ZM256.406 110H255.406L257.384 110.208L256.406 110ZM266.206 64L266.072 63.009L265.375 63.1033L265.228 63.7916L266.206 64ZM295.806 60L296.784 60.2083L297.08 58.8187L295.672 59.009L295.806 60ZM272.806 168L273.772 168.258L273.779 168.233L273.784 168.208L272.806 168ZM273.806 180.2L273.099 180.907L273.138 180.946L273.182 180.981L273.806 180.2ZM289.806 177L289.054 176.341L289.046 176.351L289.038 176.36L289.806 177ZM296.406 164.2V163.2H295.662L295.448 163.913L296.406 164.2ZM304.806 164.2L305.753 164.523L306.204 163.2H304.806V164.2ZM251.206 195.6L250.546 196.351L250.553 196.357L250.56 196.363L251.206 195.6ZM245.006 182.8L245.996 182.659L245.619 180.022L244.168 182.255L245.006 182.8ZM232.406 196L231.831 195.182L231.821 195.189L232.406 196ZM238.006 177.4L237.346 176.649L237.338 176.656L237.331 176.663L238.006 177.4ZM244.806 165.2L245.781 165.425L245.806 165.314V165.2H244.806ZM244.806 164.2L243.828 163.991L243.806 164.094V164.2H244.806ZM254.606 118.4L255.584 118.609L255.633 118.379L255.575 118.151L254.606 118.4ZM232.006 120.8L232.827 121.371L232.833 121.363L232.006 120.8ZM222.006 143.2L222.97 143.467L222.971 143.463L222.006 143.2ZM221.206 179L220.499 179.707L220.511 179.719L220.524 179.731L221.206 179ZM215.406 200.2C208.062 200.2 201.991 197.699 197.122 192.702L195.69 194.098C200.955 199.501 207.551 202.2 215.406 202.2V200.2ZM197.122 192.702C192.314 187.767 189.806 179.94 189.806 169H187.806C187.806 180.194 190.366 188.633 195.69 194.098L197.122 192.702ZM189.806 169C189.806 159.265 191.714 149.046 195.548 138.337L193.665 137.663C189.766 148.554 187.806 159.001 187.806 169H189.806ZM195.545 138.344C199.498 127.54 205.285 118.472 212.901 111.119L211.512 109.681C203.661 117.261 197.715 126.593 193.667 137.656L195.545 138.344ZM212.901 111.119C220.584 103.697 229.669 100 240.206 100V98C229.143 98 219.562 101.903 211.511 109.681L212.901 111.119ZM240.206 100C245.593 100 249.414 100.926 251.833 102.619L252.98 100.981C250.065 98.9406 245.753 98 240.206 98V100ZM251.833 102.619C254.252 104.312 255.406 106.483 255.406 109.2H257.406C257.406 105.784 255.894 103.021 252.98 100.981L251.833 102.619ZM255.406 109.2V110H257.406V109.2H255.406ZM257.384 110.208L267.184 64.2084L265.228 63.7916L255.428 109.792L257.384 110.208ZM266.34 64.991L295.94 60.991L295.672 59.009L266.072 63.009L266.34 64.991ZM294.828 59.7917L271.828 167.792L273.784 168.208L296.784 60.2083L294.828 59.7917ZM271.84 167.742C271.282 169.834 271.006 172.055 271.006 174.4H273.006C273.006 172.212 273.264 170.166 273.772 168.258L271.84 167.742ZM271.006 174.4C271.006 177.185 271.628 179.436 273.099 180.907L274.513 179.493C273.584 178.564 273.006 176.948 273.006 174.4H271.006ZM273.182 180.981C274.781 182.26 277.193 182.8 280.206 182.8V180.8C277.352 180.8 275.499 180.273 274.431 179.419L273.182 180.981ZM280.206 182.8C284.273 182.8 287.743 181.038 290.574 177.64L289.038 176.36C286.537 179.362 283.606 180.8 280.206 180.8V182.8ZM290.559 177.659C293.477 174.323 295.735 169.917 297.364 164.487L295.448 163.913C293.877 169.15 291.735 173.277 289.054 176.341L290.559 177.659ZM296.406 165.2H304.806V163.2H296.406V165.2ZM303.86 163.877C299.827 175.71 294.521 184.488 287.991 190.303C281.482 196.1 273.705 199 264.606 199V201C274.174 201 282.43 197.934 289.321 191.797C296.192 185.678 301.652 176.557 305.753 164.523L303.86 163.877ZM264.606 199C259.326 199 255.103 197.588 251.852 194.837L250.56 196.363C254.243 199.479 258.953 201 264.606 201V199ZM251.867 194.849C248.757 192.113 246.772 188.089 245.996 182.659L244.016 182.941C244.841 188.711 246.989 193.221 250.546 196.351L251.867 194.849ZM244.168 182.255C240.767 187.487 236.655 191.793 231.831 195.182L232.981 196.818C238.025 193.274 242.312 188.779 245.845 183.345L244.168 182.255ZM231.821 195.189C227.209 198.52 221.752 200.2 215.406 200.2V202.2C222.127 202.2 228.004 200.413 232.992 196.811L231.821 195.189ZM228.406 182.8C231.934 182.8 235.364 181.178 238.682 178.137L237.331 176.663C234.248 179.488 231.278 180.8 228.406 180.8V182.8ZM238.667 178.151C242.187 175.053 244.543 170.787 245.781 165.425L243.832 164.975C242.669 170.013 240.492 173.88 237.346 176.649L238.667 178.151ZM245.806 165.2V164.2H243.806V165.2H245.806ZM245.784 164.409L255.584 118.609L253.628 118.191L243.828 163.991L245.784 164.409ZM255.575 118.151C254.941 115.685 253.874 113.728 252.306 112.389C250.725 111.04 248.731 110.4 246.406 110.4V112.4C248.348 112.4 249.854 112.926 251.007 113.911C252.172 114.905 253.072 116.448 253.638 118.649L255.575 118.151ZM246.406 110.4C240.616 110.4 235.548 113.821 231.18 120.237L232.833 121.363C236.998 115.245 241.53 112.4 246.406 112.4V110.4ZM231.185 120.229C226.841 126.474 223.465 134.05 221.041 142.937L222.971 143.463C225.347 134.75 228.638 127.393 232.827 121.371L231.185 120.229ZM221.043 142.933C218.626 151.659 217.406 159.418 217.406 166.2H219.406C219.406 159.649 220.586 152.075 222.97 143.467L221.043 142.933ZM217.406 166.2C217.406 169.572 217.642 172.384 218.129 174.614C218.613 176.824 219.368 178.576 220.499 179.707L221.913 178.293C221.177 177.557 220.533 176.243 220.083 174.186C219.638 172.15 219.406 169.495 219.406 166.2H217.406ZM220.524 179.731C222.714 181.775 225.36 182.8 228.406 182.8V180.8C225.853 180.8 223.699 179.958 221.889 178.269L220.524 179.731ZM318.684 84.6L319.391 83.8929L319.391 83.8929L318.684 84.6ZM318.684 62.2L319.391 62.9071L319.399 62.8996L319.406 62.8919L318.684 62.2ZM341.084 62.2L340.362 62.8919L340.377 62.9073L340.392 62.922L341.084 62.2ZM341.084 84.6L340.392 83.878L340.385 83.8854L340.377 83.8929L341.084 84.6ZM300.684 195.2L299.965 195.895L299.971 195.901L299.977 195.907L300.684 195.2ZM296.484 164.2L295.506 163.993L295.504 164.004L296.484 164.2ZM310.084 100V99H309.274L309.106 99.7928L310.084 100ZM338.884 100L339.863 100.207L340.118 99H338.884V100ZM324.484 168L325.451 168.258L325.457 168.233L325.463 168.207L324.484 168ZM325.484 180.2L324.777 180.907L324.816 180.946L324.86 180.981L325.484 180.2ZM342.684 177L343.377 177.721L343.384 177.714L343.391 177.707L342.684 177ZM349.884 164.2V163.2H349.127L348.922 163.929L349.884 164.2ZM358.284 164.2L359.23 164.524L359.684 163.2H358.284V164.2ZM339.284 193.6L339.832 194.437L339.842 194.43L339.284 193.6ZM329.884 88.2C325.745 88.2 322.268 86.769 319.391 83.8929L317.977 85.3071C321.235 88.5643 325.223 90.2 329.884 90.2V88.2ZM319.391 83.8929C316.515 81.0168 315.084 77.5391 315.084 73.4H313.084C313.084 78.0609 314.72 82.0499 317.977 85.3071L319.391 83.8929ZM315.084 73.4C315.084 69.2609 316.515 65.7832 319.391 62.9071L317.977 61.4929C314.72 64.7501 313.084 68.7391 313.084 73.4H315.084ZM319.406 62.8919C322.286 59.8871 325.759 58.4 329.884 58.4V56.4C325.21 56.4 321.216 58.1129 317.962 61.5081L319.406 62.8919ZM329.884 58.4C334.01 58.4 337.483 59.8871 340.362 62.8919L341.806 61.5081C338.553 58.1129 334.559 56.4 329.884 56.4V58.4ZM340.392 62.922C343.397 65.8016 344.884 69.2748 344.884 73.4H346.884C346.884 68.7252 345.171 64.7317 341.776 61.478L340.392 62.922ZM344.884 73.4C344.884 77.5251 343.397 80.9984 340.392 83.878L341.776 85.322C345.171 82.0683 346.884 78.0748 346.884 73.4H344.884ZM340.377 83.8929C337.501 86.769 334.023 88.2 329.884 88.2V90.2C334.545 90.2 338.534 88.5643 341.791 85.3071L340.377 83.8929ZM316.284 200.2C310.112 200.2 305.179 198.28 301.391 194.493L299.977 195.907C304.19 200.12 309.657 202.2 316.284 202.2V200.2ZM301.403 194.505C297.783 190.76 295.884 185.054 295.884 177.2H293.884C293.884 185.346 295.853 191.64 299.965 195.895L301.403 194.505ZM295.884 177.2C295.884 173.961 296.404 169.7 297.465 164.396L295.504 164.004C294.431 169.367 293.884 173.773 293.884 177.2H295.884ZM297.463 164.407L311.063 100.207L309.106 99.7928L295.506 163.993L297.463 164.407ZM310.084 101H338.884V99H310.084V101ZM337.906 99.7928L323.506 167.793L325.463 168.207L339.863 100.207L337.906 99.7928ZM323.518 167.742C322.96 169.834 322.684 172.055 322.684 174.4H324.684C324.684 172.212 324.942 170.166 325.451 168.258L323.518 167.742ZM322.684 174.4C322.684 177.185 323.307 179.436 324.777 180.907L326.191 179.493C325.262 178.564 324.684 176.948 324.684 174.4H322.684ZM324.86 180.981C326.459 182.26 328.872 182.8 331.884 182.8V180.8C329.031 180.8 327.177 180.273 326.109 179.419L324.86 180.981ZM331.884 182.8C336.058 182.8 339.896 181.063 343.377 177.721L341.992 176.279C338.806 179.337 335.444 180.8 331.884 180.8V182.8ZM343.391 177.707C346.863 174.236 349.341 169.812 350.847 164.471L348.922 163.929C347.495 168.988 345.173 173.097 341.977 176.293L343.391 177.707ZM349.884 165.2H358.284V163.2H349.884V165.2ZM357.338 163.876C352.435 178.19 346.196 187.748 338.726 192.77L339.842 194.43C347.84 189.052 354.268 179.01 359.23 164.524L357.338 163.876ZM338.736 192.764C331.13 197.747 323.651 200.2 316.284 200.2V202.2C324.118 202.2 331.972 199.587 339.832 194.436L338.736 192.764ZM354.805 193.4L354.088 194.098L354.088 194.098L354.805 193.4ZM353.005 138L352.066 137.656L352.063 137.663L353.005 138ZM370.605 110.4L371.299 111.119L371.299 111.119L370.605 110.4ZM410.805 101.8L411.378 100.981L411.378 100.981L410.805 101.8ZM414.805 110H413.805L415.783 110.208L414.805 110ZM424.605 64L424.471 63.009L423.773 63.1033L423.627 63.7916L424.605 64ZM454.205 60L455.183 60.2083L455.479 58.8187L454.071 59.009L454.205 60ZM431.205 168L432.171 168.258L432.177 168.233L432.183 168.208L431.205 168ZM432.205 180.2L431.498 180.907L431.537 180.946L431.58 180.981L432.205 180.2ZM448.205 177L447.452 176.341L447.444 176.351L447.436 176.36L448.205 177ZM454.805 164.2V163.2H454.061L453.847 163.913L454.805 164.2ZM463.205 164.2L464.151 164.523L464.602 163.2H463.205V164.2ZM409.605 195.6L408.944 196.351L408.951 196.357L408.959 196.363L409.605 195.6ZM403.405 182.8L404.395 182.659L404.018 180.022L402.566 182.255L403.405 182.8ZM390.805 196L390.23 195.182L390.219 195.189L390.805 196ZM396.405 177.4L395.744 176.649L395.736 176.656L395.729 176.663L396.405 177.4ZM403.205 165.2L404.179 165.425L404.205 165.314V165.2H403.205ZM403.205 164.2L402.227 163.991L402.205 164.094V164.2H403.205ZM413.005 118.4L413.983 118.609L414.032 118.379L413.973 118.151L413.005 118.4ZM390.405 120.8L391.226 121.371L391.231 121.363L390.405 120.8ZM380.405 143.2L381.368 143.467L381.369 143.463L380.405 143.2ZM379.605 179L378.898 179.707L378.91 179.719L378.922 179.731L379.605 179ZM373.805 200.2C366.46 200.2 360.39 197.699 355.521 192.702L354.088 194.098C359.353 199.501 365.949 202.2 373.805 202.2V200.2ZM355.521 192.702C350.712 187.767 348.205 179.94 348.205 169H346.205C346.205 180.194 348.764 188.633 354.088 194.098L355.521 192.702ZM348.205 169C348.205 159.265 350.112 149.046 353.946 138.337L352.063 137.663C348.164 148.554 346.205 159.001 346.205 169H348.205ZM353.944 138.344C357.896 127.54 363.684 118.472 371.299 111.119L369.91 109.681C362.059 117.261 356.113 126.593 352.066 137.656L353.944 138.344ZM371.299 111.119C378.982 103.697 388.068 100 398.605 100V98C387.542 98 377.96 101.903 369.91 109.681L371.299 111.119ZM398.605 100C403.992 100 407.812 100.926 410.231 102.619L411.378 100.981C408.464 98.9406 404.151 98 398.605 98V100ZM410.231 102.619C412.65 104.312 413.805 106.483 413.805 109.2H415.805C415.805 105.784 414.293 103.021 411.378 100.981L410.231 102.619ZM413.805 109.2V110H415.805V109.2H413.805ZM415.783 110.208L425.583 64.2084L423.627 63.7916L413.827 109.792L415.783 110.208ZM424.739 64.991L454.339 60.991L454.071 59.009L424.471 63.009L424.739 64.991ZM453.227 59.7917L430.227 167.792L432.183 168.208L455.183 60.2083L453.227 59.7917ZM430.238 167.742C429.681 169.834 429.405 172.055 429.405 174.4H431.405C431.405 172.212 431.662 170.166 432.171 168.258L430.238 167.742ZM429.405 174.4C429.405 177.185 430.027 179.436 431.498 180.907L432.912 179.493C431.982 178.564 431.405 176.948 431.405 174.4H429.405ZM431.58 180.981C433.179 182.26 435.592 182.8 438.605 182.8V180.8C435.751 180.8 433.897 180.273 432.829 179.419L431.58 180.981ZM438.605 182.8C442.671 182.8 446.141 181.038 448.973 177.64L447.436 176.36C444.935 179.362 442.005 180.8 438.605 180.8V182.8ZM448.957 177.659C451.876 174.323 454.134 169.917 455.763 164.487L453.847 163.913C452.276 169.15 450.134 173.277 447.452 176.341L448.957 177.659ZM454.805 165.2H463.205V163.2H454.805V165.2ZM462.258 163.877C458.226 175.71 452.919 184.488 446.39 190.303C439.881 196.1 432.104 199 423.005 199V201C432.572 201 440.829 197.934 447.72 191.797C454.59 185.678 460.05 176.557 464.151 164.523L462.258 163.877ZM423.005 199C417.724 199 413.502 197.588 410.251 194.837L408.959 196.363C412.641 199.479 417.352 201 423.005 201V199ZM410.265 194.849C407.155 192.113 405.17 188.089 404.395 182.659L402.415 182.941C403.239 188.711 405.387 193.221 408.944 196.351L410.265 194.849ZM402.566 182.255C399.165 187.487 395.053 191.793 390.23 195.182L391.38 196.818C396.423 193.274 400.711 188.779 404.243 183.345L402.566 182.255ZM390.219 195.189C385.607 198.52 380.151 200.2 373.805 200.2V202.2C380.525 202.2 386.402 200.413 391.39 196.811L390.219 195.189ZM386.805 182.8C390.333 182.8 393.763 181.178 397.08 178.137L395.729 176.663C392.647 179.488 389.677 180.8 386.805 180.8V182.8ZM397.065 178.151C400.585 175.053 402.942 170.787 404.179 165.425L402.23 164.975C401.068 170.013 398.891 173.88 395.744 176.649L397.065 178.151ZM404.205 165.2V164.2H402.205V165.2H404.205ZM404.183 164.409L413.983 118.609L412.027 118.191L402.227 163.991L404.183 164.409ZM413.973 118.151C413.339 115.685 412.272 113.728 410.704 112.389C409.124 111.04 407.129 110.4 404.805 110.4V112.4C406.747 112.4 408.252 112.926 409.405 113.911C410.57 114.905 411.47 116.448 412.036 118.649L413.973 118.151ZM404.805 110.4C399.014 110.4 393.946 113.821 389.578 120.237L391.231 121.363C395.396 115.245 399.929 112.4 404.805 112.4V110.4ZM389.584 120.229C385.239 126.474 381.864 134.05 379.44 142.937L381.369 143.463C383.746 134.75 387.037 127.393 391.226 121.371L389.584 120.229ZM379.441 142.933C377.025 151.659 375.805 159.418 375.805 166.2H377.805C377.805 159.649 378.985 152.075 381.368 143.467L379.441 142.933ZM375.805 166.2C375.805 169.572 376.04 172.384 376.528 174.614C377.011 176.824 377.767 178.576 378.898 179.707L380.312 178.293C379.576 177.557 378.931 176.243 378.482 174.186C378.036 172.15 377.805 169.495 377.805 166.2H375.805ZM378.922 179.731C381.112 181.775 383.758 182.8 386.805 182.8V180.8C384.251 180.8 382.097 179.958 380.287 178.269L378.922 179.731ZM460.683 193.2L460.021 193.949L460.021 193.949L460.683 193.2ZM457.483 139L458.433 139.313L458.434 139.309L457.483 139ZM475.083 110.4L475.784 111.113L475.79 111.107L475.083 110.4ZM531.683 125.2L530.685 125.267L530.763 126.435L531.904 126.175L531.683 125.2ZM539.483 120.4L540.228 121.067L540.237 121.057L540.245 121.048L539.483 120.4ZM545.883 111.4V110.4H545.317L545.025 110.886L545.883 111.4ZM552.283 111.4L553.177 111.847L553.901 110.4H552.283V111.4ZM542.683 128.4L543.502 128.973L543.506 128.967L543.511 128.961L542.683 128.4ZM531.683 138.2L531.195 137.327L530.72 137.593L530.685 138.136L531.683 138.2ZM523.883 171.2L522.976 170.778L522.971 170.789L523.883 171.2ZM507.083 193.2L507.673 194.007L507.683 194L507.083 193.2ZM505.883 170.8L506.765 171.271L506.765 171.271L505.883 170.8ZM514.683 141.2L515.674 141.335L515.782 140.544L515.034 140.264L514.683 141.2ZM515.483 121.8L515.904 122.707L516.523 122.419L516.481 121.738L515.483 121.8ZM513.283 113L512.431 113.524L512.455 113.563L512.483 113.6L513.283 113ZM495.283 120L496.126 120.538L496.131 120.53L495.283 120ZM485.483 143L484.52 142.731L484.517 142.741L485.483 143ZM484.083 179.6L483.243 180.143L483.251 180.155L483.259 180.167L484.083 179.6ZM484.083 199.8C474.388 199.8 466.848 197.314 461.345 192.451L460.021 193.949C465.985 199.22 474.045 201.8 484.083 201.8V199.8ZM461.345 192.451C455.906 187.644 453.083 179.973 453.083 169.2H451.083C451.083 180.294 453.993 188.623 460.021 193.949L461.345 192.451ZM453.083 169.2C453.083 160.129 454.858 150.169 458.433 139.313L456.533 138.687C452.908 149.697 451.083 159.871 451.083 169.2H453.083ZM458.434 139.309C461.985 128.392 467.767 118.998 475.784 111.113L474.382 109.687C466.131 117.802 460.18 127.475 456.532 138.691L458.434 139.309ZM475.79 111.107C483.716 103.181 493.852 99.2 506.283 99.2V97.2C493.38 97.2 482.716 101.352 474.376 109.693L475.79 111.107ZM506.283 99.2C513.954 99.2 519.709 101.388 523.704 105.635C527.72 109.904 530.094 116.394 530.685 125.267L532.681 125.133C532.072 116.006 529.612 108.996 525.161 104.265C520.69 99.5123 514.345 97.2 506.283 97.2V99.2ZM531.904 126.175C535.066 125.457 537.842 123.734 540.228 121.067L538.738 119.733C536.591 122.133 534.166 123.61 531.461 124.225L531.904 126.175ZM540.245 121.048C542.551 118.335 544.715 115.29 546.74 111.914L545.025 110.886C543.05 114.177 540.948 117.132 538.721 119.752L540.245 121.048ZM545.883 112.4H552.283V110.4H545.883V112.4ZM551.388 110.953C547.798 118.134 544.62 123.757 541.855 127.839L543.511 128.961C546.346 124.776 549.568 119.066 553.177 111.847L551.388 110.953ZM541.864 127.827C539.156 131.695 535.605 134.862 531.195 137.327L532.171 139.073C536.827 136.471 540.61 133.105 543.502 128.973L541.864 127.827ZM530.685 138.136C529.891 150.57 527.314 161.445 522.976 170.779L524.79 171.621C529.251 162.022 531.874 150.896 532.681 138.264L530.685 138.136ZM522.971 170.789C518.76 180.132 513.257 187.32 506.483 192.4L507.683 194C514.776 188.68 520.472 181.201 524.794 171.611L522.971 170.789ZM506.493 192.393C499.727 197.337 492.266 199.8 484.083 199.8V201.8C492.7 201.8 500.572 199.196 507.673 194.007L506.493 192.393ZM492.083 183.8C497.617 183.8 502.471 179.322 506.765 171.271L505 170.329C500.761 178.278 496.415 181.8 492.083 181.8V183.8ZM506.765 171.271C511.102 163.14 514.062 153.152 515.674 141.335L513.692 141.065C512.103 152.715 509.197 162.46 505 170.329L506.765 171.271ZM515.034 140.264C513.66 139.749 512.65 138.863 511.965 137.579C511.268 136.272 510.883 134.499 510.883 132.2H508.883C508.883 134.701 509.298 136.828 510.2 138.521C511.116 140.237 512.505 141.451 514.332 142.136L515.034 140.264ZM510.883 132.2C510.883 129.714 511.33 127.722 512.163 126.174C512.989 124.64 514.224 123.487 515.904 122.707L515.062 120.893C513.009 121.846 511.443 123.293 510.402 125.226C509.369 127.144 508.883 129.486 508.883 132.2H510.883ZM516.481 121.738C516.213 117.453 515.474 114.254 514.083 112.4L512.483 113.6C513.492 114.946 514.219 117.614 514.485 121.862L516.481 121.738ZM514.134 112.476C512.84 110.372 510.665 109.4 507.883 109.4V111.4C510.167 111.4 511.593 112.161 512.431 113.524L514.134 112.476ZM507.883 109.4C502.947 109.4 498.486 112.989 494.435 119.47L496.131 120.53C500.08 114.211 504.019 111.4 507.883 111.4V109.4ZM494.44 119.462C490.375 125.831 487.073 133.593 484.52 142.731L486.446 143.269C488.959 134.273 492.191 126.703 496.126 120.538L494.44 119.462ZM484.517 142.741C482.102 151.73 480.883 159.687 480.883 166.6H482.883C482.883 159.913 484.064 152.136 486.449 143.259L484.517 142.741ZM480.883 166.6C480.883 169.833 481.068 172.576 481.447 174.817C481.824 177.044 482.404 178.846 483.243 180.143L484.922 179.057C484.295 178.087 483.775 176.59 483.419 174.483C483.065 172.39 482.883 169.767 482.883 166.6H480.883ZM483.259 180.167C484.992 182.687 488.058 183.8 492.083 183.8V181.8C488.374 181.8 486.107 180.78 484.907 179.033L483.259 180.167Z" fill="black"/>
<path d="M588.6 203.2C573.533 203.2 562.467 199.4 555.4 191.8C548.333 184.2 544.8 171.6 544.8 154C544.8 140 547.133 124.933 551.8 108.8C556.6 92.6667 564.2 78.8667 574.6 67.4C585.133 55.8 598.467 50 614.6 50C624.6 50 632.667 52.2 638.8 56.6C644.933 61 648 67.7333 648 76.8C648 82.5333 646.867 87.0667 644.6 90.4C642.333 93.6 638.8 95.2 634 95.2C629.2 95.2 625.4 93.4667 622.6 90C625 88.8 627.133 86.4 629 82.8C630.867 79.2 631.8 75.4667 631.8 71.6C631.8 68 630.8 65.0667 628.8 62.8C626.933 60.5333 623.867 59.4 619.6 59.4C612.533 59.4 605.8 64.2667 599.4 74C593 83.6 587.8 95.7333 583.8 110.4C579.933 125.067 578 139.2 578 152.8C578 162.933 579.733 170.667 583.2 176C586.667 181.333 592.933 184 602 184C609.867 184 617.133 182.267 623.8 178.8C630.467 175.333 636.2 170.4 641 164L645.6 166C642.267 174.4 637.333 181.4 630.8 187C624.267 192.6 617.267 196.733 609.8 199.4C602.333 201.933 595.267 203.2 588.6 203.2ZM669.014 201.2C659.147 201.2 651.481 198.667 646.014 193.6C640.547 188.4 637.814 180.333 637.814 169.4C637.814 160.2 639.614 150.067 643.214 139C646.814 127.933 652.681 118.4 660.814 110.4C668.947 102.267 679.281 98.2 691.814 98.2C706.481 98.2 713.814 104.6 713.814 117.4C713.814 124.867 711.681 131.733 707.414 138C703.147 144.267 697.481 149.333 690.414 153.2C683.347 156.933 675.814 159.067 667.814 159.6C667.547 163.6 667.414 166.267 667.414 167.6C667.414 174.133 668.547 178.6 670.814 181C673.081 183.267 676.747 184.4 681.814 184.4C689.014 184.4 695.147 182.733 700.214 179.4C705.414 176.067 711.081 171 717.214 164.2H724.014C709.214 188.867 690.881 201.2 669.014 201.2ZM669.414 150C674.347 149.733 679.014 148 683.414 144.8C687.947 141.6 691.547 137.533 694.214 132.6C697.014 127.667 698.414 122.467 698.414 117C698.414 111.533 696.747 108.8 693.414 108.8C688.614 108.8 683.881 113 679.214 121.4C674.681 129.8 671.414 139.333 669.414 150ZM730.772 100H759.572L756.972 112.4C761.505 108.4 765.572 105.333 769.172 103.2C772.905 101.067 776.905 100 781.172 100C785.439 100 788.772 101.467 791.172 104.4C793.705 107.333 794.972 110.867 794.972 115C794.972 118.867 793.705 122.267 791.172 125.2C788.639 128.133 785.105 129.6 780.572 129.6C777.639 129.6 775.639 128.933 774.572 127.6C773.639 126.133 772.905 124.067 772.372 121.4C771.972 119.667 771.572 118.4 771.172 117.6C770.772 116.8 770.039 116.4 768.972 116.4C766.172 116.4 763.772 117 761.772 118.2C759.905 119.267 757.439 121.2 754.372 124L738.372 200H709.572L730.772 100ZM812.167 201.2C805.767 201.2 800.567 199.2 796.567 195.2C792.701 191.2 790.767 185.2 790.767 177.2C790.767 173.867 791.301 169.533 792.367 164.2L804.367 108H797.767L799.367 100H805.967L811.967 72.4L841.567 68.4L834.767 100H846.767L845.167 108H833.167L820.367 168C819.834 170 819.567 172.133 819.567 174.4C819.567 177.067 820.167 179 821.367 180.2C822.701 181.267 824.834 181.8 827.767 181.8C831.634 181.8 835.234 180.2 838.567 177C841.901 173.667 844.301 169.4 845.767 164.2H854.167C849.234 178.6 842.901 188.4 835.167 193.6C827.434 198.667 819.767 201.2 812.167 201.2ZM874.888 200.8C865.021 200.8 857.221 198.267 851.488 193.2C845.754 188.133 842.887 180.133 842.887 169.2C842.887 160 844.687 149.933 848.288 139C851.888 127.933 857.754 118.4 865.888 110.4C874.021 102.267 884.421 98.2 897.087 98.2C912.821 98.2 921.288 107.2 922.488 125.2C925.421 124.533 928.021 122.933 930.288 120.4C932.554 117.733 934.688 114.733 936.688 111.4H943.088C939.488 118.6 936.288 124.267 933.488 128.4C930.688 132.4 927.021 135.667 922.488 138.2C921.688 150.733 919.088 161.733 914.688 171.2C910.421 180.667 904.821 188 897.888 193.2C890.954 198.267 883.288 200.8 874.888 200.8ZM882.888 182.8C887.821 182.8 892.421 178.8 896.688 170.8C900.954 162.8 903.888 152.933 905.488 141.2C902.288 140 900.688 137 900.688 132.2C900.688 127 902.554 123.533 906.288 121.8C906.021 117.533 905.288 114.6 904.088 113C903.021 111.267 901.221 110.4 898.688 110.4C894.288 110.4 890.088 113.6 886.088 120C882.088 126.267 878.821 133.933 876.288 143C873.888 151.933 872.688 159.8 872.688 166.6C872.688 173 873.421 177.333 874.888 179.6C876.354 181.733 879.021 182.8 882.888 182.8Z" fill="white"/>
<path d="M555.4 191.8L556.132 191.119L556.132 191.119L555.4 191.8ZM551.8 108.8L550.841 108.515L550.839 108.522L551.8 108.8ZM574.6 67.4L573.86 66.7277L573.859 66.7282L574.6 67.4ZM638.8 56.6L638.217 57.4125L638.217 57.4125L638.8 56.6ZM644.6 90.4L645.416 90.978L645.422 90.9702L645.427 90.9623L644.6 90.4ZM622.6 90L622.153 89.1056L621.041 89.6614L621.822 90.6283L622.6 90ZM628.8 62.8L628.028 63.4357L628.039 63.4488L628.05 63.4616L628.8 62.8ZM599.4 74L600.232 74.5547L600.236 74.5494L599.4 74ZM583.8 110.4L582.835 110.137L582.833 110.145L583.8 110.4ZM583.2 176L582.362 176.545L582.362 176.545L583.2 176ZM623.8 178.8L624.261 179.687L624.261 179.687L623.8 178.8ZM641 164L641.399 163.083L640.674 162.768L640.2 163.4L641 164ZM645.6 166L646.529 166.369L646.887 165.469L645.999 165.083L645.6 166ZM630.8 187L631.451 187.759L631.451 187.759L630.8 187ZM609.8 199.4L610.121 200.347L610.129 200.344L610.136 200.342L609.8 199.4ZM588.6 202.2C573.684 202.2 562.938 198.438 556.132 191.119L554.668 192.481C561.995 200.362 573.383 204.2 588.6 204.2V202.2ZM556.132 191.119C549.324 183.796 545.8 171.511 545.8 154H543.8C543.8 171.689 547.343 184.604 554.668 192.481L556.132 191.119ZM545.8 154C545.8 140.111 548.115 125.138 552.761 109.078L550.839 108.522C546.152 124.728 543.8 139.889 543.8 154H545.8ZM552.758 109.085C557.52 93.0827 565.05 79.4181 575.341 68.0718L573.859 66.7282C563.35 78.3152 555.68 92.2507 550.842 108.515L552.758 109.085ZM575.34 68.0722C585.678 56.6879 598.739 51 614.6 51V49C598.194 49 584.589 54.9121 573.86 66.7277L575.34 68.0722ZM614.6 51C624.458 51 632.301 53.1685 638.217 57.4125L639.383 55.7875C633.032 51.2315 624.742 49 614.6 49V51ZM638.217 57.4125C644.034 61.5856 647 67.9821 647 76.8H649C649 67.4845 645.833 60.4144 639.383 55.7875L638.217 57.4125ZM647 76.8C647 82.414 645.889 86.7266 643.773 89.8377L645.427 90.9623C647.845 87.4067 649 82.6526 649 76.8H647ZM643.784 89.822C641.748 92.6968 638.558 94.2 634 94.2V96.2C639.042 96.2 642.919 94.5032 645.416 90.978L643.784 89.822ZM634 94.2C629.475 94.2 625.972 92.5833 623.378 89.3717L621.822 90.6283C624.828 94.3501 628.925 96.2 634 96.2V94.2ZM623.047 90.8944C625.711 89.5627 627.971 86.9573 629.888 83.2603L628.112 82.3397C626.296 85.8426 624.289 88.0373 622.153 89.1056L623.047 90.8944ZM629.888 83.2603C631.824 79.5252 632.8 75.6347 632.8 71.6H630.8C630.8 75.2986 629.909 78.8748 628.112 82.3397L629.888 83.2603ZM632.8 71.6C632.8 67.8053 631.741 64.6214 629.55 62.1384L628.05 63.4616C629.859 65.5119 630.8 68.1947 630.8 71.6H632.8ZM629.572 62.1643C627.441 59.5772 624.026 58.4 619.6 58.4V60.4C623.708 60.4 626.425 61.4894 628.028 63.4357L629.572 62.1643ZM619.6 58.4C612.023 58.4 605.027 63.6219 598.564 73.4506L600.236 74.5494C606.573 64.9114 613.044 60.4 619.6 60.4V58.4ZM598.568 73.4453C592.093 83.158 586.855 95.3975 582.835 110.137L584.765 110.663C588.745 96.0692 593.907 84.042 600.232 74.5547L598.568 73.4453ZM582.833 110.145C578.947 124.886 577 139.105 577 152.8H579C579 139.295 580.92 125.248 584.767 110.655L582.833 110.145ZM577 152.8C577 163.022 578.744 170.98 582.362 176.545L584.038 175.455C580.723 170.354 579 162.845 579 152.8H577ZM582.362 176.545C586.084 182.272 592.751 185 602 185V183C593.116 183 587.249 180.395 584.038 175.455L582.362 176.545ZM602 185C610.02 185 617.445 183.231 624.261 179.687L623.339 177.913C616.821 181.302 609.714 183 602 183V185ZM624.261 179.687C631.07 176.147 636.916 171.112 641.8 164.6L640.2 163.4C635.484 169.688 629.864 174.52 623.339 177.913L624.261 179.687ZM640.601 164.917L645.201 166.917L645.999 165.083L641.399 163.083L640.601 164.917ZM644.671 165.631C641.394 173.888 636.553 180.752 630.149 186.241L631.451 187.759C638.114 182.048 643.139 174.912 646.529 166.369L644.671 165.631ZM630.149 186.241C623.701 191.768 616.806 195.836 609.464 198.458L610.136 200.342C617.728 197.631 624.833 193.432 631.451 187.759L630.149 186.241ZM609.479 198.453C602.097 200.957 595.14 202.2 588.6 202.2V204.2C595.394 204.2 602.57 202.909 610.121 200.347L609.479 198.453ZM646.014 193.6L645.325 194.325L645.334 194.333L646.014 193.6ZM643.214 139L644.165 139.309L644.165 139.309L643.214 139ZM660.814 110.4L661.515 111.113L661.521 111.107L660.814 110.4ZM707.414 138L708.241 138.563L708.241 138.563L707.414 138ZM690.414 153.2L690.881 154.084L690.888 154.081L690.894 154.077L690.414 153.2ZM667.814 159.6L667.748 158.602L666.874 158.66L666.816 159.533L667.814 159.6ZM670.814 181L670.087 181.687L670.097 181.697L670.107 181.707L670.814 181ZM700.214 179.4L699.674 178.558L699.664 178.565L700.214 179.4ZM717.214 164.2V163.2H716.769L716.471 163.53L717.214 164.2ZM724.014 164.2L724.872 164.714L725.78 163.2H724.014V164.2ZM669.414 150L668.431 149.816L668.197 151.067L669.468 150.999L669.414 150ZM683.414 144.8L682.837 143.983L682.826 143.991L683.414 144.8ZM694.214 132.6L693.344 132.106L693.339 132.115L693.334 132.124L694.214 132.6ZM679.214 121.4L678.34 120.914L678.334 120.925L679.214 121.4ZM669.014 200.2C659.316 200.2 651.922 197.712 646.694 192.867L645.334 194.333C651.039 199.621 658.979 202.2 669.014 202.2V200.2ZM646.703 192.875C641.51 187.935 638.814 180.184 638.814 169.4H636.814C636.814 180.483 639.585 188.865 645.325 194.325L646.703 192.875ZM638.814 169.4C638.814 160.329 640.589 150.301 644.165 139.309L642.263 138.691C638.639 149.832 636.814 160.071 636.814 169.4H638.814ZM644.165 139.309C647.716 128.392 653.499 118.998 661.515 111.113L660.113 109.687C651.863 117.802 645.912 127.475 642.263 138.691L644.165 139.309ZM661.521 111.107C669.449 103.179 679.52 99.2 691.814 99.2V97.2C679.042 97.2 668.446 101.354 660.107 109.693L661.521 111.107ZM691.814 99.2C699.024 99.2 704.245 100.776 707.657 103.753C711.042 106.708 712.814 111.192 712.814 117.4H714.814C714.814 110.808 712.919 105.692 708.972 102.247C705.05 98.824 699.271 97.2 691.814 97.2V99.2ZM712.814 117.4C712.814 124.663 710.743 131.334 706.587 137.437L708.241 138.563C712.618 132.133 714.814 125.071 714.814 117.4H712.814ZM706.587 137.437C702.415 143.565 696.871 148.527 689.934 152.323L690.894 154.077C698.091 150.14 703.879 144.968 708.241 138.563L706.587 137.437ZM689.947 152.316C683.005 155.983 675.608 158.078 667.748 158.602L667.881 160.598C676.02 160.055 683.69 157.883 690.881 154.084L689.947 152.316ZM666.816 159.533C666.55 163.528 666.414 166.228 666.414 167.6H668.414C668.414 166.306 668.545 163.672 668.812 159.667L666.816 159.533ZM666.414 167.6C666.414 174.172 667.538 178.988 670.087 181.687L671.541 180.313C669.556 178.212 668.414 174.094 668.414 167.6H666.414ZM670.107 181.707C672.645 184.245 676.631 185.4 681.814 185.4V183.4C676.864 183.4 673.516 182.288 671.521 180.293L670.107 181.707ZM681.814 185.4C689.172 185.4 695.505 183.695 700.764 180.235L699.664 178.565C694.789 181.772 688.856 183.4 681.814 183.4V185.4ZM700.754 180.242C706.055 176.843 711.789 171.707 717.957 164.87L716.471 163.53C710.372 170.293 704.773 175.29 699.674 178.558L700.754 180.242ZM717.214 165.2H724.014V163.2H717.214V165.2ZM723.157 163.686C708.473 188.159 690.42 200.2 669.014 200.2V202.2C691.342 202.2 709.956 189.574 724.872 164.714L723.157 163.686ZM669.468 150.999C674.613 150.72 679.463 148.91 684.002 145.609L682.826 143.991C678.566 147.09 674.081 148.746 669.36 149.001L669.468 150.999ZM683.991 145.617C688.651 142.327 692.355 138.143 695.094 133.076L693.334 132.124C690.74 136.924 687.243 140.873 682.837 143.983L683.991 145.617ZM695.084 133.094C697.966 128.016 699.414 122.646 699.414 117H697.414C697.414 122.287 696.062 127.318 693.344 132.106L695.084 133.094ZM699.414 117C699.414 114.198 698.993 111.928 698.018 110.329C696.994 108.65 695.412 107.8 693.414 107.8V109.8C694.75 109.8 695.667 110.316 696.31 111.371C697.002 112.505 697.414 114.336 697.414 117H699.414ZM693.414 107.8C690.7 107.8 688.091 108.992 685.6 111.202C683.117 113.405 680.703 116.661 678.34 120.914L680.088 121.886C682.392 117.739 684.677 114.695 686.928 112.698C689.171 110.708 691.328 109.8 693.414 109.8V107.8ZM678.334 120.925C673.745 129.428 670.448 139.061 668.431 149.816L670.397 150.184C672.38 139.606 675.616 130.172 680.094 121.875L678.334 120.925ZM730.772 100V99H729.962L729.794 99.7926L730.772 100ZM759.572 100L760.551 100.205L760.803 99H759.572V100ZM756.972 112.4L755.993 112.195L755.375 115.143L757.633 113.15L756.972 112.4ZM769.172 103.2L768.676 102.332L768.669 102.336L768.662 102.34L769.172 103.2ZM791.172 104.4L790.398 105.033L790.406 105.044L790.415 105.054L791.172 104.4ZM791.172 125.2L790.415 124.546L790.415 124.546L791.172 125.2ZM774.572 127.6L773.728 128.137L773.757 128.182L773.791 128.225L774.572 127.6ZM772.372 121.4L773.352 121.204L773.35 121.189L773.346 121.175L772.372 121.4ZM771.172 117.6L772.066 117.153L772.066 117.153L771.172 117.6ZM761.772 118.2L762.268 119.068L762.277 119.063L762.286 119.057L761.772 118.2ZM754.372 124L753.698 123.262L753.46 123.479L753.393 123.794L754.372 124ZM738.372 200V201H739.183L739.35 200.206L738.372 200ZM709.572 200L708.594 199.793L708.338 201H709.572V200ZM730.772 101H759.572V99H730.772V101ZM758.593 99.7948L755.993 112.195L757.951 112.605L760.551 100.205L758.593 99.7948ZM757.633 113.15C762.139 109.175 766.154 106.151 769.682 104.06L768.662 102.34C764.99 104.516 760.872 107.625 756.31 111.65L757.633 113.15ZM769.668 104.068C773.251 102.021 777.081 101 781.172 101V99C776.73 99 772.559 100.113 768.676 102.332L769.668 104.068ZM781.172 101C785.181 101 788.213 102.363 790.398 105.033L791.946 103.767C789.33 100.57 785.696 99 781.172 99V101ZM790.415 105.054C792.781 107.793 793.972 111.089 793.972 115H795.972C795.972 110.644 794.63 106.874 791.929 103.746L790.415 105.054ZM793.972 115C793.972 118.626 792.792 121.794 790.415 124.546L791.929 125.854C794.618 122.739 795.972 119.107 795.972 115H793.972ZM790.415 124.546C788.105 127.222 784.869 128.6 780.572 128.6V130.6C785.341 130.6 789.172 129.045 791.929 125.854L790.415 124.546ZM780.572 128.6C777.732 128.6 776.129 127.945 775.353 126.975L773.791 128.225C775.149 129.922 777.546 130.6 780.572 130.6V128.6ZM775.416 127.063C774.575 125.742 773.874 123.81 773.352 121.204L771.391 121.596C771.937 124.323 772.702 126.524 773.728 128.137L775.416 127.063ZM773.346 121.175C772.942 119.425 772.521 118.063 772.066 117.153L770.277 118.047C770.622 118.737 771.001 119.909 771.397 121.625L773.346 121.175ZM772.066 117.153C771.782 116.584 771.36 116.127 770.801 115.822C770.252 115.523 769.627 115.4 768.972 115.4V117.4C769.383 117.4 769.658 117.477 769.843 117.578C770.018 117.673 770.162 117.816 770.277 118.047L772.066 117.153ZM768.972 115.4C766.027 115.4 763.441 116.032 761.257 117.343L762.286 119.057C764.102 117.968 766.317 117.4 768.972 117.4V115.4ZM761.276 117.332C759.311 118.455 756.778 120.449 753.698 123.262L755.046 124.738C758.099 121.951 760.5 120.079 762.268 119.068L761.276 117.332ZM753.393 123.794L737.393 199.794L739.35 200.206L755.35 124.206L753.393 123.794ZM738.372 199H709.572V201H738.372V199ZM710.55 200.207L731.75 100.207L729.794 99.7926L708.594 199.793L710.55 200.207ZM796.567 195.2L795.848 195.895L795.854 195.901L795.86 195.907L796.567 195.2ZM792.367 164.2L791.389 163.991L791.387 164.004L792.367 164.2ZM804.367 108L805.345 108.209L805.603 107H804.367V108ZM797.767 108L796.787 107.804L796.547 109H797.767V108ZM799.367 100V99H798.547L798.387 99.8039L799.367 100ZM805.967 100V101H806.773L806.944 100.212L805.967 100ZM811.967 72.4L811.833 71.409L811.139 71.5028L810.99 72.1876L811.967 72.4ZM841.567 68.4L842.545 68.6104L842.844 67.2183L841.433 67.409L841.567 68.4ZM834.767 100L833.79 99.7896L833.529 101H834.767V100ZM846.767 100L847.748 100.196L847.987 99H846.767V100ZM845.167 108V109H845.987L846.148 108.196L845.167 108ZM833.167 108V107H832.358L832.189 107.791L833.167 108ZM820.367 168L821.333 168.258L821.34 168.233L821.345 168.209L820.367 168ZM821.367 180.2L820.66 180.907L820.699 180.946L820.742 180.981L821.367 180.2ZM838.567 177L839.26 177.721L839.267 177.714L839.274 177.707L838.567 177ZM845.767 164.2V163.2H845.01L844.805 163.929L845.767 164.2ZM854.167 164.2L855.113 164.524L855.567 163.2H854.167V164.2ZM835.167 193.6L835.715 194.437L835.725 194.43L835.167 193.6ZM812.167 200.2C805.994 200.2 801.062 198.28 797.274 194.493L795.86 195.907C800.073 200.12 805.54 202.2 812.167 202.2V200.2ZM797.286 194.505C793.666 190.76 791.767 185.054 791.767 177.2H789.767C789.767 185.346 791.735 191.64 795.848 195.895L797.286 194.505ZM791.767 177.2C791.767 173.961 792.287 169.7 793.348 164.396L791.387 164.004C790.314 169.367 789.767 173.773 789.767 177.2H791.767ZM793.345 164.409L805.345 108.209L803.389 107.791L791.389 163.991L793.345 164.409ZM804.367 107H797.767V109H804.367V107ZM798.748 108.196L800.348 100.196L798.387 99.8039L796.787 107.804L798.748 108.196ZM799.367 101H805.967V99H799.367V101ZM806.944 100.212L812.944 72.6124L810.99 72.1876L804.99 99.7876L806.944 100.212ZM812.101 73.391L841.701 69.391L841.433 67.409L811.833 71.409L812.101 73.391ZM840.59 68.1896L833.79 99.7896L835.745 100.21L842.545 68.6104L840.59 68.1896ZM834.767 101H846.767V99H834.767V101ZM845.787 99.8039L844.187 107.804L846.148 108.196L847.748 100.196L845.787 99.8039ZM845.167 107H833.167V109H845.167V107ZM832.189 107.791L819.389 167.791L821.345 168.209L834.145 108.209L832.189 107.791ZM819.401 167.742C818.843 169.834 818.567 172.055 818.567 174.4H820.567C820.567 172.212 820.825 170.166 821.333 168.258L819.401 167.742ZM818.567 174.4C818.567 177.185 819.189 179.436 820.66 180.907L822.074 179.493C821.145 178.564 820.567 176.948 820.567 174.4H818.567ZM820.742 180.981C822.342 182.26 824.754 182.8 827.767 182.8V180.8C824.913 180.8 823.06 180.273 821.992 179.419L820.742 180.981ZM827.767 182.8C831.941 182.8 835.779 181.063 839.26 177.721L837.875 176.279C834.689 179.337 831.327 180.8 827.767 180.8V182.8ZM839.274 177.707C842.745 174.236 845.223 169.812 846.73 164.471L844.805 163.929C843.378 168.988 841.056 173.097 837.86 176.293L839.274 177.707ZM845.767 165.2H854.167V163.2H845.767V165.2ZM853.221 163.876C848.317 178.19 842.079 187.748 834.609 192.77L835.725 194.43C843.722 189.052 850.15 179.01 855.113 164.524L853.221 163.876ZM834.619 192.764C827.013 197.747 819.534 200.2 812.167 200.2V202.2C820 202.2 827.855 199.587 835.715 194.436L834.619 192.764ZM851.488 193.2L850.825 193.949L850.825 193.949L851.488 193.2ZM848.288 139L849.237 139.313L849.238 139.309L848.288 139ZM865.888 110.4L866.589 111.113L866.595 111.107L865.888 110.4ZM922.488 125.2L921.49 125.267L921.568 126.435L922.709 126.175L922.488 125.2ZM930.288 120.4L931.033 121.067L931.041 121.057L931.049 121.048L930.288 120.4ZM936.688 111.4V110.4H936.121L935.83 110.886L936.688 111.4ZM943.088 111.4L943.982 111.847L944.706 110.4H943.088V111.4ZM933.488 128.4L934.307 128.973L934.311 128.967L934.315 128.961L933.488 128.4ZM922.488 138.2L922 137.327L921.524 137.593L921.49 138.136L922.488 138.2ZM914.688 171.2L913.781 170.778L913.776 170.789L914.688 171.2ZM897.888 193.2L898.478 194.007L898.488 194L897.888 193.2ZM896.688 170.8L897.57 171.271L897.57 171.271L896.688 170.8ZM905.488 141.2L906.478 141.335L906.586 140.544L905.839 140.264L905.488 141.2ZM906.288 121.8L906.709 122.707L907.328 122.419L907.286 121.738L906.288 121.8ZM904.088 113L903.236 113.524L903.26 113.563L903.288 113.6L904.088 113ZM886.088 120L886.93 120.538L886.935 120.53L886.088 120ZM876.288 143L875.324 142.731L875.322 142.741L876.288 143ZM874.888 179.6L874.048 180.143L874.056 180.155L874.063 180.167L874.888 179.6ZM874.888 199.8C865.192 199.8 857.652 197.314 852.15 192.451L850.825 193.949C856.789 199.22 864.849 201.8 874.888 201.8V199.8ZM852.15 192.451C846.71 187.644 843.887 179.973 843.887 169.2H841.887C841.887 180.294 844.798 188.623 850.825 193.949L852.15 192.451ZM843.887 169.2C843.887 160.129 845.663 150.169 849.237 139.313L847.338 138.687C843.712 149.697 841.887 159.871 841.887 169.2H843.887ZM849.238 139.309C852.79 128.392 858.572 118.998 866.589 111.113L865.186 109.687C856.936 117.802 850.985 127.475 847.337 138.691L849.238 139.309ZM866.595 111.107C874.521 103.181 884.657 99.2 897.087 99.2V97.2C884.185 97.2 873.521 101.352 865.18 109.693L866.595 111.107ZM897.087 99.2C904.758 99.2 910.513 101.388 914.509 105.635C918.525 109.904 920.898 116.394 921.49 125.267L923.485 125.133C922.877 116.006 920.417 108.996 915.966 104.265C911.495 99.5123 905.15 97.2 897.087 97.2V99.2ZM922.709 126.175C925.871 125.457 928.646 123.734 931.033 121.067L929.542 119.733C927.395 122.133 924.971 123.61 922.266 124.225L922.709 126.175ZM931.049 121.048C933.355 118.335 935.52 115.29 937.545 111.914L935.83 110.886C933.855 114.177 931.753 117.132 929.526 119.752L931.049 121.048ZM936.688 112.4H943.088V110.4H936.688V112.4ZM942.193 110.953C938.602 118.134 935.425 123.757 932.66 127.839L934.315 128.961C937.15 124.776 940.373 119.066 943.982 111.847L942.193 110.953ZM932.668 127.827C929.96 131.695 926.41 134.862 922 137.327L922.975 139.073C927.632 136.471 931.415 133.105 934.307 128.973L932.668 127.827ZM921.49 138.136C920.696 150.57 918.119 161.445 913.781 170.779L915.594 171.621C920.056 162.022 922.679 150.896 923.485 138.264L921.49 138.136ZM913.776 170.789C909.565 180.132 904.061 187.32 897.288 192.4L898.488 194C905.58 188.68 911.277 181.201 915.599 171.611L913.776 170.789ZM897.297 192.393C890.531 197.337 883.07 199.8 874.888 199.8V201.8C883.505 201.8 891.377 199.196 898.478 194.007L897.297 192.393ZM882.888 183.8C888.422 183.8 893.276 179.322 897.57 171.271L895.805 170.329C891.566 178.278 887.22 181.8 882.888 181.8V183.8ZM897.57 171.271C901.906 163.14 904.867 153.152 906.478 141.335L904.497 141.065C902.908 152.715 900.002 162.46 895.805 170.329L897.57 171.271ZM905.839 140.264C904.465 139.749 903.455 138.863 902.77 137.579C902.072 136.272 901.688 134.499 901.688 132.2H899.688C899.688 134.701 900.103 136.828 901.005 138.521C901.92 140.237 903.31 141.451 905.136 142.136L905.839 140.264ZM901.688 132.2C901.688 129.714 902.134 127.722 902.968 126.174C903.794 124.64 905.028 123.487 906.709 122.707L905.866 120.893C903.813 121.846 902.248 123.293 901.207 125.226C900.174 127.144 899.688 129.486 899.688 132.2H901.688ZM907.286 121.738C907.018 117.453 906.278 114.254 904.888 112.4L903.288 113.6C904.297 114.946 905.024 117.614 905.289 121.862L907.286 121.738ZM904.939 112.476C903.644 110.372 901.47 109.4 898.688 109.4V111.4C900.972 111.4 902.397 112.161 903.236 113.524L904.939 112.476ZM898.688 109.4C893.751 109.4 889.29 112.989 885.24 119.47L886.935 120.53C890.885 114.211 894.824 111.4 898.688 111.4V109.4ZM885.245 119.462C881.18 125.831 877.878 133.593 875.324 142.731L877.251 143.269C879.764 134.273 882.995 126.703 886.93 120.538L885.245 119.462ZM875.322 142.741C872.907 151.73 871.688 159.687 871.688 166.6H873.688C873.688 159.913 874.868 152.136 877.253 143.259L875.322 142.741ZM871.688 166.6C871.688 169.833 871.872 172.576 872.252 174.817C872.628 177.044 873.209 178.846 874.048 180.143L875.727 179.057C875.1 178.087 874.58 176.59 874.223 174.483C873.869 172.39 873.688 169.767 873.688 166.6H871.688ZM874.063 180.167C875.796 182.687 878.863 183.8 882.888 183.8V181.8C879.179 181.8 876.912 180.78 875.712 179.033L874.063 180.167Z" fill="black"/>
</svg>
